<svg xmlns="http://www.w3.org/2000/svg" x="0px" y="0px" width="100" height="100" viewBox="0 0 24 24">
<path d="M18,21H6c-1.657,0-3-1.343-3-3V6c0-1.657,1.343-3,3-3h12c1.657,0,3,1.343,3,3v12	C21,19.657,19.657,21,18,21z" opacity=".35"></path><path d="M12.608,19c-0.762,0-1.221-0.348-1.49-0.722c-0.243-0.338-0.091-0.819,0.289-0.988l0,0c0.268-0.12,0.6-0.082,0.795,0.139	c0.078,0.089,0.185,0.155,0.332,0.155c0.366,0,0.505-0.259,0.505-0.958v-3.674c0-0.412,0.333-0.746,0.744-0.746h0	c0.411,0,0.744,0.334,0.744,0.746v3.805C14.526,17.471,14.374,19,12.608,19z"></path><path d="M18.714,13.193c-0.185,0.263-0.533,0.386-0.826,0.254c-0.124-0.056-0.271-0.096-0.437-0.096	c-0.168,0-0.655,0.065-0.655,0.686c0,1.055,2.227,0.778,2.227,2.801c0,1.166-0.724,2.162-2.068,2.162	c-0.548,0-0.978-0.147-1.32-0.342c-0.328-0.187-0.414-0.624-0.201-0.937l0.02-0.029c0.184-0.27,0.543-0.382,0.833-0.231	c0.17,0.089,0.379,0.158,0.622,0.158c0.546,0,0.646-0.463,0.646-0.675c0-1.104-2.199-0.72-2.199-2.843	c0-1.211,0.838-2.101,2.04-2.101c0.445,0,0.792,0.092,1.058,0.212C18.829,12.382,18.951,12.856,18.714,13.193L18.714,13.193z"></path>
</svg>