<svg xmlns="http://www.w3.org/2000/svg" x="0px" y="0px" width="100" height="100" viewBox="0 0 24 24">
<path fill="none" stroke="#000" stroke-miterlimit="10" stroke-width="2" d="M12 7A11 5 0 1 0 12 17A11 5 0 1 0 12 7Z"></path><path fill="none" stroke="#000" stroke-miterlimit="10" stroke-width="2" d="M12 6.972A11.181 5.028 0 1 0 12 17.028A11.181 5.028 0 1 0 12 6.972Z" transform="rotate(-59.914 12 12)"></path><path fill="none" stroke="#000" stroke-miterlimit="10" stroke-width="2" d="M12 0.8190000000000008A5.028 11.181 0 1 0 12 23.180999999999997A5.028 11.181 0 1 0 12 0.8190000000000008Z" transform="rotate(-30.083 12.001 12)"></path><path d="M12 10A2 2 0 1 0 12 14A2 2 0 1 0 12 10Z" opacity=".3"></path><path d="M12,15c-1.654,0-3-1.346-3-3s1.346-3,3-3s3,1.346,3,3S13.654,15,12,15z M12,11c-0.552,0-1,0.448-1,1s0.448,1,1,1 s1-0.448,1-1S12.552,11,12,11z"></path>
</svg>